<?xml version="1.0" encoding="UTF-8"?>
<svg width="20px" height="20px" viewBox="0 0 20 20" version="1.1" xmlns="http://www.w3.org/2000/svg" xmlns:xlink="http://www.w3.org/1999/xlink">
    <title>自动加工@1x</title>
    <g id="自动加工" stroke="none" stroke-width="1" fill="none" fill-rule="evenodd">
        <g id="编组-4">
            <path d="M4.57942856,3.00003305 C4.87992872,2.99749473 5.13858671,3.21285416 5.192,3.51009566 L5.19999999,3.60888504 L5.19999999,4.30960033 L8.39999999,4.30960033 L8.39999999,3.26197352 C8.39999999,3.14135859 8.48342855,3.0402718 8.59542856,3.00925653 L8.66628571,3.00003305 L11.3337143,3.00003305 C11.456,3.00003305 11.5588572,3.08047676 11.5908571,3.191902 L11.6,3.26197352 L11.6,4.30960033 L14.8,4.30960033 L14.8,3.60888504 C14.8,3.30677335 15.0251429,3.05520507 15.32,3.0081078 L15.4205714,3.00003305 L16.312,3.00003305 C16.6129302,2.9969318 16.8722289,3.21242269 16.9257143,3.51009566 L16.9337143,3.60888504 L16.9337143,10.6102945 C17.2029387,10.6601416 17.4127489,10.8733192 17.4594286,11.1444463 L17.4662857,11.2478305 L17.4662857,12.1782886 C17.7348572,12.2196422 17.9474286,12.4264107 17.992,12.6894661 L18,12.7894042 L18,15.2166361 C18,15.52564 17.7714286,15.7806545 17.4708572,15.8289004 L17.368,15.8369414 L17.2,15.8369414 L17.2,17.4095303 L17.7337143,17.4095303 C17.803626,17.4086111 17.8710214,17.4357254 17.9209939,17.4848762 C17.9709665,17.534027 17.999398,17.6011637 18,17.671437 C17.9992068,17.7904025 17.9190745,17.8940251 17.8045714,17.9241541 L17.7337143,17.9333664 L2.26628569,17.9333664 C2.196374,17.934263 2.1289786,17.9071486 2.07900606,17.8579979 C2.02903352,17.8088471 2.000602,17.7417104 2,17.671437 C2.00118585,17.5526088 2.08115469,17.4491977 2.19542857,17.4187201 L2.26628569,17.4095303 L2.79999999,17.4095303 L2.79999999,15.8369414 L2.63199999,15.8369414 C2.32598337,15.8396245 2.06251701,15.6203992 2.00799999,15.3177229 L2,15.2166361 L2,12.7894042 C2,12.5148617 2.18285713,12.2816728 2.43542857,12.2012628 L2.53371426,12.1782886 L2.53371426,11.2478305 C2.53371426,10.9663957 2.7142857,10.7274633 2.96799999,10.6367149 L3.06628572,10.6102945 L3.06628572,3.60888504 C3.06628572,3.30677335 3.29142858,3.05520507 3.58628569,3.0081078 L3.68685715,3.00003305 L4.57942856,3.00003305 Z M13.2117797,13.6666997 L5.72380118,13.6666997 C5.45322004,13.6652243 5.22656876,13.8758057 5.20215168,14.1513712 C5.17773461,14.4269368 5.36368054,14.6757467 5.63011574,14.72402 L5.72380118,14.7333664 L13.2117797,14.7333664 C13.4998258,14.7333664 13.7333333,14.4945867 13.7333333,14.2000369 C13.7333333,13.9054872 13.4998258,13.6666997 13.2117797,13.6666997 Z M8.39999999,6.20003305 L5.2,6.20003305 L5.2,10.4666997 L14.8,10.4666997 L14.8,6.20003305 L11.6,6.20003305 L11.6,7.20369567 C11.5992068,7.31766871 11.5190745,7.41694267 11.4045714,7.44580729 L11.3337143,7.45461132 L10.8,7.45461132 L10.8,7.95644263 C10.7984876,8.2406713 10.6303697,8.49969234 10.3657143,8.62555106 L10.2662857,8.66626982 L10.2662857,9.21212144 C10.2656837,9.27944574 10.2372522,9.34376505 10.1872797,9.39085317 C10.1373071,9.43794129 10.0699117,9.46391777 10,9.46303709 C9.88101613,9.46365136 9.77604884,9.38818008 9.74285714,9.27815187 L9.73371427,9.21212144 L9.73371427,8.66626982 C9.45549683,8.57587409 9.2527662,8.34373416 9.208,8.06429236 L9.2,7.95644263 L9.2,7.45461132 L8.66628571,7.45461132 C8.54761952,7.45536736 8.44275461,7.38041849 8.40914286,7.27082663 L8.39999999,7.2047962 L8.39999999,6.20003305 Z" id="形状结合备份" fill="#919191" fill-rule="nonzero"></path>
            <rect id="矩形" x="0" y="0" width="20" height="20"></rect>
        </g>
    </g>
</svg>